<svg width="580" height="636" viewBox="0 0 580 636" fill="none" xmlns="http://www.w3.org/2000/svg">
<path d="M282.142 431.471C279.389 431.471 275.719 430.095 271.132 427.342L19.9564 256.68C13.0749 252.093 8.02843 247.505 4.81706 242.917C1.60569 238.33 0 232.825 0 226.402V204.381C0 197.958 1.3763 192.682 4.12891 188.553C7.34028 184.425 12.6161 179.837 19.9564 174.79L271.132 4.12889C275.719 1.37629 279.389 0 282.142 0C286.271 0 289.712 1.37629 292.464 4.12889C295.217 6.42272 296.593 9.86349 296.593 14.4512V92.2122C296.593 99.0938 294.758 104.599 291.088 108.728C287.877 112.398 283.289 116.068 277.325 119.738L130.749 215.391L277.325 311.733C283.748 316.32 288.565 320.449 291.776 324.119C294.987 327.331 296.593 332.148 296.593 338.57V417.02C296.593 421.149 295.217 424.589 292.464 427.342C289.712 430.095 286.271 431.471 282.142 431.471Z" fill="#D77CE6"/>
<path d="M296.942 203.831C299.695 203.831 303.365 205.207 307.953 207.96L559.128 378.621C566.01 383.209 571.056 387.796 574.267 392.384C577.479 396.972 579.084 402.477 579.084 408.9L579.084 430.921C579.084 437.343 577.708 442.619 574.956 446.748C571.744 450.877 566.468 455.465 559.128 460.511L307.953 631.173C303.365 633.925 299.695 635.301 296.942 635.301C292.814 635.301 289.373 633.925 286.62 631.173C283.868 628.879 282.491 625.438 282.491 620.85L282.491 543.089C282.491 536.208 284.326 530.703 287.996 526.574C291.208 522.903 295.796 519.233 301.759 515.563L448.336 419.91L301.759 323.569C295.337 318.981 290.52 314.852 287.308 311.182C284.097 307.971 282.491 303.154 282.491 296.731L282.491 218.282C282.491 214.153 283.868 210.712 286.62 207.96C289.373 205.207 292.814 203.831 296.942 203.831Z" fill="#6C38CC"/>
</svg>
