<svg width="751" height="823" viewBox="0 0 751 823" fill="none" xmlns="http://www.w3.org/2000/svg">
<path d="M365.5 558.948C361.934 558.948 357.18 557.165 351.237 553.599L25.8525 332.516C16.9378 326.573 10.4004 320.63 6.24025 314.687C2.08008 308.744 0 301.612 0 293.292V264.765C0 256.444 1.78293 249.61 5.34879 244.261C9.50895 238.912 16.3435 232.969 25.8525 226.432L351.237 5.34876C357.18 1.78292 361.934 0 365.5 0C370.849 0 375.306 1.78292 378.872 5.34876C382.438 8.3203 384.221 12.7776 384.221 18.7208V119.456C384.221 128.371 381.844 135.502 377.089 140.851C372.929 145.606 366.986 150.36 359.26 155.115L169.378 279.028L359.26 403.833C367.58 409.776 373.821 415.125 377.981 419.88C382.141 424.04 384.221 430.28 384.221 438.6V540.227C384.221 545.576 382.438 550.033 378.872 553.599C375.306 557.165 370.849 558.948 365.5 558.948Z" fill="#D77CE6"/>
<path d="M384.673 264.052C388.239 264.052 392.994 265.835 398.937 269.401L724.321 490.484C733.236 496.427 739.773 502.37 743.933 508.313C748.094 514.256 750.174 521.388 750.174 529.708L750.174 558.235C750.174 566.555 748.391 573.39 744.825 578.739C740.665 584.087 733.83 590.031 724.321 596.568L398.937 817.651C392.994 821.217 388.239 823 384.673 823C379.325 823 374.867 821.217 371.301 817.651C367.736 814.679 365.953 810.222 365.953 804.279L365.953 703.544C365.953 694.629 368.33 687.497 373.084 682.148C377.245 677.394 383.188 672.639 390.914 667.885L580.796 543.972L390.914 419.167C382.593 413.223 376.353 407.875 372.193 403.12C368.033 398.96 365.953 392.72 365.953 384.399L365.953 282.773C365.953 277.424 367.736 272.966 371.302 269.401C374.867 265.835 379.325 264.052 384.673 264.052Z" fill="#6C38CC"/>
</svg>
