<svg width="349" height="382" viewBox="0 0 349 382" fill="none" xmlns="http://www.w3.org/2000/svg">
<path d="M169.649 259.439C167.994 259.439 165.787 258.611 163.029 256.956L11.9996 154.339C7.86178 151.581 4.82741 148.822 2.89645 146.064C0.965483 143.305 0 139.995 0 136.133V122.892C0 119.03 0.827557 115.858 2.48267 113.375C4.41363 110.892 7.58593 108.134 11.9996 105.1L163.029 2.48266C165.787 0.82755 167.994 0 169.649 0C172.132 0 174.201 0.82755 175.856 2.48266C177.511 3.86192 178.338 5.93081 178.338 8.68935V55.4462C178.338 59.584 177.235 62.8942 175.028 65.3769C173.097 67.5837 170.339 69.7906 166.753 71.9974L78.6178 129.512L166.753 187.441C170.614 190.2 173.511 192.683 175.442 194.889C177.373 196.82 178.338 199.717 178.338 203.579V250.749C178.338 253.232 177.511 255.301 175.856 256.956C174.201 258.611 172.132 259.439 169.649 259.439Z" fill="#D77CE6"/>
<path d="M178.548 122.561C180.203 122.561 182.41 123.389 185.169 125.044L336.198 227.661C340.335 230.419 343.37 233.178 345.301 235.936C347.232 238.695 348.197 242.005 348.197 245.867L348.197 259.108C348.197 262.97 347.37 266.142 345.715 268.625C343.784 271.108 340.611 273.866 336.198 276.9L185.169 379.517C182.41 381.172 180.203 382 178.548 382C176.066 382 173.997 381.172 172.342 379.517C170.687 378.138 169.859 376.069 169.859 373.311L169.859 326.554C169.859 322.416 170.962 319.106 173.169 316.623C175.1 314.416 177.859 312.209 181.445 310.003L269.579 252.487L181.445 194.559C177.583 191.8 174.686 189.317 172.755 187.111C170.824 185.18 169.859 182.283 169.859 178.421L169.859 131.251C169.859 128.768 170.687 126.699 172.342 125.044C173.997 123.389 176.066 122.561 178.548 122.561Z" fill="#6C38CC"/>
</svg>
