<svg width="62" height="69" viewBox="0 0 62 69" fill="none" xmlns="http://www.w3.org/2000/svg">
<path d="M30.2077 46.1957C29.913 46.1957 29.52 46.0483 29.0288 45.7536L2.13664 27.4816C1.39987 26.9904 0.859568 26.4993 0.515741 26.0081C0.171914 25.5169 0 24.9275 0 24.2398V21.8822C0 21.1945 0.147355 20.6296 0.442064 20.1876C0.785891 19.7455 1.35075 19.2543 2.13664 18.714L29.0288 0.442062C29.52 0.147353 29.913 0 30.2077 0C30.6497 0 31.0181 0.147353 31.3128 0.442062C31.6076 0.687652 31.7549 1.05604 31.7549 1.54722V9.87275C31.7549 10.6095 31.5584 11.1989 31.1655 11.641C30.8217 12.034 30.3305 12.4269 29.6919 12.8198L13.9987 23.061L29.6919 33.3758C30.3796 33.867 30.8953 34.3091 31.2392 34.702C31.583 35.0458 31.7549 35.5616 31.7549 36.2492V44.6484C31.7549 45.0905 31.6076 45.4589 31.3128 45.7536C31.0181 46.0483 30.6497 46.1957 30.2077 46.1957Z" fill="#D77CE6"/>
<path d="M31.7923 21.8233C32.087 21.8233 32.48 21.9706 32.9712 22.2653L59.8634 40.5373C60.6001 41.0285 61.1404 41.5197 61.4843 42.0108C61.8281 42.502 62 43.0914 62 43.7791L62 46.1368C62 46.8244 61.8526 47.3893 61.5579 47.8313C61.2141 48.2734 60.6493 48.7646 59.8634 49.3049L32.9712 67.5769C32.48 67.8716 32.087 68.0189 31.7923 68.0189C31.3503 68.0189 30.9819 67.8716 30.6872 67.5769C30.3924 67.3313 30.2451 66.9629 30.2451 66.4717L30.2451 58.1462C30.2451 57.4094 30.4416 56.82 30.8345 56.3779C31.1783 55.985 31.6695 55.592 32.3081 55.1991L48.0013 44.9579L32.3081 34.6431C31.6204 34.1519 31.1047 33.7099 30.7608 33.3169C30.417 32.9731 30.2451 32.4573 30.2451 31.7697L30.2451 23.3705C30.2451 22.9284 30.3925 22.56 30.6872 22.2653C30.9819 21.9706 31.3503 21.8233 31.7923 21.8233Z" fill="#6C38CC"/>
</svg>
